<?xml version="1.0" standalone="no"?>
<!DOCTYPE svg PUBLIC "-//W3C//DTD SVG 20010904//EN"
 "http://www.w3.org/TR/2001/REC-SVG-20010904/DTD/svg10.dtd">
<svg version="1.0" xmlns="http://www.w3.org/2000/svg"
 width="2100.000000pt" height="2100.000000pt" viewBox="0 0 2100.000000 2100.000000"
 preserveAspectRatio="xMidYMid meet">
<metadata>
Created by potrace 1.11, written by Peter Selinger 2001-2013
</metadata>
<g transform="translate(0.000000,2100.000000) scale(0.100000,-0.100000)"
fill="#000000" stroke="none">
<path d="M9020 17759 c-25 -5 -64 -14 -88 -19 -23 -6 -55 -10 -70 -10 -15 0
-54 -9 -86 -20 -33 -11 -71 -20 -86 -20 -15 0 -33 -7 -40 -15 -7 -8 -34 -18
-61 -21 -27 -4 -52 -11 -55 -15 -6 -10 -88 -49 -102 -49 -5 0 -15 -6 -21 -14
-7 -8 -25 -17 -40 -21 -16 -3 -63 -42 -118 -98 -107 -109 -123 -131 -123 -172
l-1 -30 -32 35 c-34 36 -58 50 -142 81 -40 16 -78 19 -202 19 -135 0 -164 -3
-265 -29 -62 -16 -155 -44 -207 -61 -93 -31 -336 -143 -346 -159 -3 -5 -34
-24 -69 -41 -36 -18 -79 -48 -97 -66 -18 -19 -38 -34 -44 -34 -19 0 -209 -198
-220 -228 -6 -16 -15 -35 -21 -43 -21 -28 -37 -97 -30 -133 8 -42 1 -44 -42
-12 -81 59 -215 59 -387 0 -27 -9 -57 -21 -65 -26 -8 -4 -22 -11 -30 -14 -26
-10 -107 -50 -130 -64 -8 -5 -34 -19 -57 -30 -23 -11 -44 -24 -47 -29 -3 -5
-25 -19 -48 -31 -24 -12 -95 -72 -158 -134 -63 -62 -142 -133 -175 -158 -221
-168 -353 -433 -290 -585 21 -51 19 -54 -22 -36 -46 19 -125 20 -179 3 -21 -7
-75 -29 -119 -51 -75 -35 -96 -53 -315 -273 -133 -134 -239 -248 -244 -263 -5
-16 -20 -40 -33 -55 -23 -25 -57 -80 -84 -138 -6 -14 -15 -32 -20 -40 -5 -8
-14 -26 -20 -40 -6 -14 -15 -32 -20 -40 -5 -8 -14 -26 -19 -40 -6 -14 -15 -33
-21 -44 -18 -32 -34 -146 -34 -253 0 -92 2 -104 23 -125 12 -14 22 -34 22 -46
0 -20 -5 -22 -60 -22 -41 0 -72 -6 -97 -20 -21 -11 -42 -20 -48 -20 -20 0
-275 -266 -275 -287 0 -11 -12 -30 -26 -44 -14 -13 -35 -42 -45 -64 -19 -39
-43 -84 -61 -115 -4 -8 -13 -26 -19 -40 -7 -14 -27 -56 -45 -95 -17 -38 -35
-86 -39 -105 -4 -19 -13 -42 -20 -50 -7 -8 -16 -31 -20 -50 -4 -19 -13 -46
-20 -60 -6 -14 -17 -59 -24 -100 -6 -41 -16 -100 -21 -131 -6 -30 -10 -100
-10 -154 0 -131 20 -192 83 -262 51 -55 56 -83 17 -83 -63 0 -227 -154 -277
-260 -48 -102 -61 -133 -68 -165 -4 -16 -13 -44 -21 -62 -8 -17 -17 -46 -20
-65 -4 -18 -11 -39 -17 -46 -6 -7 -14 -58 -17 -112 -5 -65 -13 -105 -24 -121
-14 -20 -16 -62 -16 -325 0 -274 2 -307 20 -364 11 -34 20 -67 20 -72 0 -48
105 -185 176 -229 l33 -20 -78 -74 c-42 -41 -83 -87 -90 -102 -8 -15 -20 -40
-27 -55 -8 -14 -23 -55 -34 -91 -18 -59 -20 -94 -20 -381 -1 -260 2 -320 14
-338 8 -13 19 -58 25 -100 17 -125 57 -271 81 -303 5 -5 11 -27 15 -48 4 -21
18 -53 31 -73 13 -19 24 -38 25 -42 0 -4 26 -41 57 -82 60 -79 166 -160 209
-160 30 0 38 -17 13 -30 -11 -6 -20 -20 -20 -30 0 -11 -4 -20 -9 -20 -5 0 -24
-30 -42 -67 -30 -62 -33 -78 -37 -179 -3 -75 1 -141 13 -205 9 -52 20 -119 25
-150 4 -31 13 -65 19 -75 6 -10 24 -60 41 -110 16 -50 47 -124 68 -165 21 -41
44 -93 51 -117 8 -23 21 -47 28 -54 8 -6 20 -26 28 -44 33 -79 278 -350 358
-394 29 -17 64 -26 117 -30 62 -4 75 -8 78 -23 2 -10 -4 -27 -13 -37 -15 -17
-17 -41 -16 -177 1 -86 7 -178 13 -203 24 -98 200 -416 274 -495 11 -11 39
-45 64 -75 95 -118 299 -305 377 -347 12 -6 35 -18 50 -27 92 -50 124 -58 212
-53 47 4 98 8 112 10 l26 5 -5 -118 -5 -118 47 -94 c25 -51 70 -124 98 -163
85 -114 359 -375 394 -375 3 0 19 -13 37 -30 18 -16 36 -30 41 -30 5 0 31 -16
57 -35 53 -38 179 -105 197 -105 6 0 28 -9 47 -20 120 -67 339 -91 432 -47 27
12 50 25 51 30 2 4 11 7 19 7 11 0 14 -6 9 -23 -10 -37 16 -139 49 -192 33
-51 256 -275 275 -275 6 0 22 -11 36 -24 14 -13 69 -45 122 -72 54 -27 111
-59 129 -70 18 -12 49 -25 68 -28 20 -4 52 -16 70 -26 18 -10 53 -24 77 -30
24 -6 57 -17 73 -25 78 -35 226 -55 403 -55 196 0 222 7 307 80 69 60 74 57
90 -43 5 -30 22 -54 83 -115 64 -64 95 -86 184 -129 58 -29 111 -53 117 -53
15 0 103 -29 124 -41 10 -5 52 -16 95 -24 42 -7 102 -18 132 -24 151 -28 240
-35 445 -34 174 0 234 4 285 18 36 9 70 20 75 25 6 4 25 11 44 15 63 14 116
44 167 97 28 29 54 61 57 70 8 23 26 23 35 0 14 -34 110 -112 188 -153 80 -42
85 -43 299 -69 98 -12 426 -5 510 11 157 29 208 41 279 64 43 14 84 25 90 25
6 0 33 11 60 25 27 14 53 25 58 25 18 0 106 46 174 91 93 62 141 119 161 192
19 66 35 72 78 27 15 -16 51 -40 80 -55 50 -24 58 -25 245 -25 175 0 201 2
289 26 102 27 209 63 226 74 6 4 21 11 35 15 43 13 199 84 230 105 8 5 26 15
40 20 71 30 144 85 264 200 170 164 206 223 206 334 0 25 2 46 4 46 3 0 31
-13 63 -30 50 -26 68 -30 141 -30 77 0 192 21 217 39 6 4 30 13 55 21 53 16
227 97 235 109 3 5 24 19 47 31 24 12 53 31 65 42 12 12 31 26 41 32 70 41
120 85 265 231 99 100 172 182 186 210 12 24 27 47 32 51 5 3 23 33 39 67 26
56 29 73 30 172 1 61 -1 117 -5 126 -6 15 4 16 85 11 92 -5 189 9 220 33 8 6
26 16 40 22 123 52 450 356 545 506 28 44 64 100 82 126 46 70 138 266 158
336 44 158 42 244 -10 342 l-33 63 46 -2 c82 -2 156 27 232 93 82 71 222 225
246 271 9 18 27 47 40 64 13 16 30 46 39 65 8 18 20 41 25 49 20 32 79 163 93
208 9 26 27 79 41 117 14 39 37 118 52 177 24 99 25 121 22 280 -5 196 -13
225 -91 305 -29 30 -36 44 -26 47 8 2 39 12 69 22 43 13 68 30 115 78 66 68
122 154 153 231 64 165 92 251 101 310 5 28 15 79 24 115 22 86 46 359 40 463
-9 182 -30 320 -62 396 -41 97 -101 174 -157 201 -24 12 -46 26 -49 31 -4 5
12 16 35 25 68 27 131 110 181 239 39 102 65 383 47 531 -5 43 -13 124 -17
179 -10 116 -26 190 -83 370 -51 165 -69 203 -117 259 -21 25 -51 69 -65 99
-44 89 -105 138 -189 152 l-39 6 42 42 c58 57 83 118 77 182 -3 28 -1 98 5
157 10 105 10 108 -16 160 -14 28 -26 58 -26 65 0 7 -4 21 -10 31 -16 29 -60
223 -60 266 0 47 -51 168 -132 314 -47 84 -73 115 -222 264 -155 154 -173 170
-224 184 -33 10 -69 14 -93 10 -31 -5 -39 -3 -39 9 0 8 4 15 9 15 5 0 20 21
32 48 19 38 23 64 24 138 0 55 -5 97 -12 105 -6 8 -16 39 -21 69 -6 30 -28 89
-50 131 -21 42 -42 88 -46 102 -3 14 -12 32 -19 39 -7 7 -25 38 -40 69 -15 32
-34 62 -42 69 -8 7 -15 17 -15 21 0 36 -427 489 -461 489 -6 0 -36 18 -68 40
-31 22 -64 40 -73 40 -9 0 -20 5 -23 10 -3 6 -14 10 -24 10 -10 0 -33 7 -51
16 -32 16 -120 15 -190 -1 l-25 -6 3 119 c4 130 1 140 -68 257 -16 28 -34 60
-40 73 -24 54 -454 462 -486 462 -4 0 -17 9 -29 20 -23 22 -58 41 -202 114
-50 25 -98 46 -105 46 -8 0 -18 4 -23 9 -28 26 -120 43 -237 43 l-123 1 -47
-33 c-65 -46 -78 -38 -77 47 2 114 -12 143 -125 257 -56 56 -135 127 -176 159
-71 54 -380 217 -411 217 -8 0 -19 4 -24 9 -6 5 -39 19 -75 31 -36 12 -78 27
-95 35 -16 7 -53 16 -82 19 -29 4 -71 13 -94 21 -30 11 -87 15 -209 15 l-168
0 -72 -34 c-42 -20 -81 -48 -94 -65 -25 -34 -36 -31 -36 10 0 34 -53 103 -145
187 -98 90 -308 187 -445 207 -24 3 -71 15 -105 26 -98 33 -167 41 -425 46
-259 5 -334 -2 -445 -39 -161 -56 -234 -107 -269 -189 l-14 -33 -20 40 c-28
54 -80 106 -132 131 -98 47 -151 62 -265 74 -130 14 -492 19 -545 8z m1335
-649 c375 -27 635 -58 676 -80 10 -6 31 -10 46 -10 16 0 33 -4 39 -10 5 -5 45
-17 89 -25 44 -9 139 -29 210 -45 72 -16 159 -31 195 -34 120 -10 747 -232
1045 -371 283 -132 475 -232 670 -349 72 -42 139 -83 150 -89 136 -81 484
-330 664 -476 252 -204 605 -537 777 -735 38 -44 87 -100 110 -125 87 -98 271
-334 364 -466 288 -413 481 -750 653 -1145 310 -712 478 -1391 542 -2188 17
-205 19 -789 4 -887 -5 -33 -9 -89 -9 -125 2 -120 -66 -616 -96 -699 -8 -24
-16 -68 -17 -97 -1 -29 -8 -59 -15 -66 -6 -6 -12 -20 -12 -31 0 -54 -119 -496
-196 -724 -45 -136 -116 -324 -134 -355 -6 -10 -10 -22 -10 -28 0 -5 -13 -38
-28 -72 -16 -35 -55 -121 -87 -193 -90 -202 -237 -479 -335 -635 -33 -52 -63
-101 -67 -109 -13 -28 -217 -327 -287 -421 -66 -89 -150 -196 -238 -301 -21
-25 -38 -56 -38 -69 0 -29 -81 -120 -305 -345 -205 -207 -559 -515 -720 -628
-22 -16 -67 -48 -100 -72 -72 -53 -286 -198 -300 -204 -5 -2 -53 -31 -105 -64
-100 -64 -318 -187 -331 -187 -4 0 -9 -4 -11 -8 -4 -10 -344 -178 -453 -225
-44 -19 -109 -47 -145 -62 -36 -15 -83 -35 -105 -45 -22 -9 -74 -29 -115 -44
-41 -15 -84 -32 -95 -36 -11 -5 -87 -32 -170 -59 -566 -188 -1109 -294 -1690
-332 -262 -17 -865 -6 -1095 20 -290 32 -472 60 -683 106 -62 13 -137 29 -167
35 -157 34 -696 195 -770 231 -8 4 -49 19 -90 34 -41 16 -93 36 -115 45 -22
10 -92 39 -155 66 -193 81 -484 229 -730 371 -240 139 -621 407 -875 617 -259
214 -607 560 -831 826 -77 91 -295 376 -345 451 -13 20 -60 90 -104 155 -44
66 -82 123 -84 127 -2 5 -18 32 -37 60 -19 28 -34 57 -34 63 0 7 -7 14 -15 18
-8 3 -15 10 -15 15 0 5 -16 32 -35 61 -19 29 -35 57 -35 63 0 6 -7 18 -15 28
-42 45 -232 431 -334 678 -85 205 -205 554 -256 746 -15 55 -33 125 -41 155
-26 95 -74 319 -99 465 -108 606 -132 1209 -75 1845 26 279 103 735 165 965
85 318 110 402 180 600 87 245 106 295 155 405 23 52 51 117 63 145 41 93 169
350 229 460 299 545 667 1037 1090 1454 48 47 93 92 100 99 60 60 111 106 228
208 74 64 149 128 165 143 29 25 147 117 320 248 77 58 347 242 430 293 50 30
109 66 155 93 74 44 389 211 470 249 332 158 695 295 1000 379 167 45 510 131
545 135 73 9 150 23 174 33 49 20 413 62 731 84 108 8 697 6 815 -3z"/>
<path d="M9671 16803 l-64 -4 6 -127 c4 -70 7 -215 7 -322 0 -107 4 -201 9
-209 7 -11 48 -12 237 -5 l229 9 3 33 c2 21 -1 32 -10 33 -7 0 -95 0 -195 -1
l-182 -1 -6 43 c-3 24 -5 75 -3 113 l3 70 165 8 c91 4 171 10 178 12 8 3 12
16 10 32 l-3 28 -177 3 -177 2 -3 95 c-2 53 -1 100 0 105 2 6 48 10 105 10 56
0 139 3 185 7 l82 6 0 33 0 34 -167 -2 c-93 -1 -197 -3 -232 -5z"/>
<path d="M10266 16738 c-3 -35 -11 -137 -16 -228 -6 -91 -15 -210 -20 -265 -5
-55 -6 -103 -1 -108 4 -4 69 -12 145 -19 239 -20 318 19 377 187 25 73 30 229
9 290 -33 92 -79 141 -158 169 -33 12 -243 36 -311 36 -16 0 -20 -11 -25 -62z
m293 -44 c30 -9 63 -26 77 -41 86 -92 61 -365 -39 -438 -25 -17 -44 -20 -147
-20 -66 0 -123 4 -129 10 -10 11 20 483 33 503 8 14 132 6 205 -14z"/>
<path d="M8933 16721 c-106 -20 -195 -40 -197 -46 -3 -9 21 -169 78 -510 22
-133 24 -140 47 -143 13 -2 32 3 41 10 17 12 17 19 -2 120 -20 114 -27 174
-20 182 3 2 59 14 125 26 66 11 128 23 138 26 21 7 24 62 2 70 -8 3 -74 -6
-147 -20 -73 -14 -135 -22 -139 -18 -10 11 -33 178 -26 195 3 8 23 17 44 21
287 49 278 46 278 86 0 24 -5 35 -15 36 -8 1 -102 -15 -207 -35z"/>
<path d="M11010 16708 c-19 -47 -90 -427 -90 -485 0 -110 75 -197 190 -222
146 -31 229 6 279 127 25 61 113 456 105 476 -3 8 -19 16 -36 18 -38 6 -39 5
-83 -207 -45 -220 -60 -269 -94 -307 -52 -58 -180 -47 -246 22 -41 43 -44 113
-12 255 14 61 33 146 41 190 9 44 19 92 22 106 5 23 1 28 -27 38 -41 14 -38
15 -49 -11z"/>
<path d="M8250 16564 c-92 -33 -169 -109 -198 -193 -17 -47 -15 -166 3 -234
32 -122 96 -201 194 -238 152 -57 337 32 386 187 13 42 16 78 13 148 -3 80 -8
102 -36 159 -37 75 -73 115 -139 153 -57 34 -157 42 -223 18z m199 -99 c127
-87 162 -334 63 -438 -83 -88 -231 -90 -308 -5 -66 72 -101 231 -73 332 13 47
81 117 129 133 61 21 140 11 189 -22z"/>
<path d="M11809 16481 c-99 -21 -186 -115 -224 -244 -17 -58 -20 -195 -5 -249
30 -106 155 -192 279 -192 75 0 115 16 174 72 45 43 46 64 8 91 l-29 21 -27
-36 c-39 -51 -81 -74 -138 -74 -58 0 -113 26 -155 74 -37 43 -46 83 -40 182 4
61 12 89 43 149 49 98 88 128 170 133 48 3 71 0 102 -17 53 -26 91 -72 98
-119 10 -57 12 -60 44 -67 44 -9 52 0 45 48 -10 61 -48 130 -91 166 -61 51
-175 79 -254 62z"/>
<path d="M7400 16227 c-30 -13 -102 -45 -158 -72 -101 -48 -104 -50 -98 -78 3
-15 49 -130 101 -255 53 -125 106 -251 118 -279 12 -29 26 -53 30 -53 9 0 67
29 67 34 0 1 -20 52 -45 112 -25 59 -45 116 -45 126 0 12 31 32 103 66 56 28
116 63 134 80 63 59 79 142 42 222 -52 114 -132 145 -249 97z m120 -72 c57
-29 78 -111 45 -174 -11 -22 -41 -43 -116 -80 -55 -28 -107 -51 -114 -51 -10
0 -95 193 -95 216 0 9 213 103 238 104 7 0 26 -7 42 -15z"/>
<path d="M12442 16128 c-78 -84 -132 -140 -315 -333 -62 -65 -67 -79 -38 -95
37 -19 56 -10 119 60 35 39 68 70 74 70 7 0 58 -22 115 -50 57 -27 108 -50
113 -50 6 0 10 -46 10 -114 0 -107 1 -116 22 -130 12 -9 30 -16 39 -16 19 0
23 62 35 492 l6 227 -37 15 c-21 9 -41 16 -46 16 -5 0 -48 -42 -97 -92z m103
-75 c-3 -38 -8 -107 -11 -155 -3 -49 -10 -90 -14 -93 -12 -7 -180 77 -180 90
0 5 22 33 48 61 26 28 69 76 95 107 27 32 52 57 58 57 5 0 7 -28 4 -67z"/>
<path d="M12851 16030 c-10 -30 -9 -32 42 -64 29 -18 67 -41 85 -50 18 -9 32
-24 32 -35 0 -10 -38 -87 -83 -172 -87 -161 -177 -336 -177 -344 0 -9 61 -36
70 -30 5 3 15 18 23 33 32 63 168 322 199 377 56 103 55 101 75 88 110 -73
154 -95 168 -83 8 7 15 23 15 36 0 19 -27 39 -162 120 -90 54 -182 110 -205
126 -53 36 -68 35 -82 -2z"/>
<path d="M6908 15976 c-10 -7 -18 -19 -18 -27 0 -8 30 -68 66 -134 121 -225
148 -283 148 -335 1 -61 -21 -93 -94 -137 -62 -38 -111 -42 -153 -14 -45 29
-68 68 -219 359 -45 87 -59 96 -97 64 l-22 -17 77 -150 c109 -212 155 -285
203 -322 37 -29 50 -33 101 -33 116 0 252 94 279 193 25 89 7 143 -148 432
-71 133 -87 149 -123 121z"/>
<path d="M13388 15643 c-29 -49 -107 -180 -138 -233 -5 -8 -41 -68 -79 -134
-39 -65 -71 -125 -71 -132 0 -7 13 -20 29 -28 26 -14 30 -14 43 2 23 27 318
528 318 540 0 13 -39 42 -56 42 -6 0 -27 -26 -46 -57z"/>
<path d="M6187 15476 c-111 -41 -201 -157 -213 -275 -15 -139 76 -303 207
-372 61 -33 185 -34 244 -2 72 38 130 98 159 163 25 55 28 72 24 143 -3 70 -8
92 -38 151 -37 74 -111 150 -177 181 -49 24 -156 30 -206 11z m147 -77 c51
-14 134 -97 170 -171 62 -127 19 -271 -97 -327 -107 -52 -213 -11 -296 111
-62 93 -75 165 -44 252 21 56 98 132 141 139 52 8 87 7 126 -4z"/>
<path d="M13645 15424 c-80 -20 -191 -119 -233 -206 -35 -75 -48 -160 -34
-216 42 -157 160 -262 296 -262 88 0 149 25 215 90 79 77 113 152 119 257 6
112 -15 170 -88 243 -30 31 -73 64 -95 75 -39 18 -139 29 -180 19z m157 -93
c82 -36 134 -120 132 -218 -1 -51 -8 -73 -37 -126 -63 -112 -137 -167 -225
-167 -67 0 -110 20 -159 73 -81 88 -80 214 3 327 89 121 181 157 286 111z"/>
<path d="M5645 14983 c-22 -15 -96 -82 -164 -150 l-124 -124 49 -52 c49 -50
63 -67 169 -192 28 -33 57 -66 65 -75 8 -8 44 -48 79 -88 35 -39 69 -72 76
-72 6 0 22 11 34 24 l23 25 -91 103 c-50 57 -91 109 -91 117 0 18 87 100 118
112 39 15 84 10 208 -21 66 -16 122 -30 125 -30 10 0 69 56 69 66 0 12 -205
66 -281 73 l-59 6 21 39 c32 59 24 151 -16 198 -60 71 -140 87 -210 41z m136
-92 c23 -24 29 -38 29 -73 0 -54 -18 -83 -117 -180 -65 -65 -79 -75 -94 -65
-29 21 -119 132 -119 147 0 16 151 170 185 188 38 21 84 14 116 -17z"/>
<path d="M14059 14779 c-118 -122 -216 -228 -217 -236 -4 -16 25 -53 42 -53 6
0 85 77 174 170 90 94 167 168 172 165 4 -3 4 -22 -1 -42 -7 -32 -27 -134
-105 -543 -3 -19 3 -33 26 -55 l31 -30 219 225 c121 124 220 232 220 241 0 17
-30 49 -47 49 -6 0 -84 -77 -173 -170 -90 -94 -167 -167 -171 -163 -4 4 -2 35
6 68 14 59 33 157 81 409 l24 130 -27 28 c-15 15 -30 28 -33 28 -4 0 -103 -99
-221 -221z"/>
<path d="M5185 14427 c-71 -28 -136 -80 -158 -127 -4 -8 -15 -28 -25 -45 -71
-118 -46 -278 62 -393 169 -180 408 -142 524 83 39 74 64 204 44 230 -16 22
-160 145 -170 145 -5 0 -39 -39 -75 -87 -92 -125 -93 -128 -78 -147 23 -27 45
-18 86 36 76 97 72 95 113 56 52 -47 53 -49 47 -88 -12 -72 -37 -130 -77 -175
-81 -92 -166 -109 -271 -53 -63 34 -128 104 -154 167 -34 81 -9 190 59 260 51
52 83 64 150 57 57 -6 59 -5 69 21 14 37 7 47 -39 61 -47 14 -68 14 -107 -1z"/>
<path d="M14551 14207 c-168 -56 -306 -106 -308 -112 -1 -5 7 -23 20 -39 l23
-28 88 31 c48 17 93 31 100 31 7 0 43 -43 80 -95 37 -52 72 -97 77 -100 12 -8
12 -48 0 -61 -6 -5 -26 -42 -46 -82 -38 -77 -37 -89 3 -126 20 -18 21 -17 48
36 15 29 44 86 66 127 22 40 78 148 125 240 46 91 89 170 94 176 5 5 9 17 9
26 0 21 -47 79 -63 78 -7 0 -149 -47 -316 -102z m289 9 c0 -3 -9 -20 -19 -38
-31 -52 -90 -160 -108 -195 -9 -18 -23 -33 -30 -33 -17 0 -136 161 -126 171 5
3 59 23 120 44 62 20 115 41 118 46 6 9 45 13 45 5z"/>
<path d="M15035 13804 c-66 -47 -180 -126 -253 -176 -91 -62 -132 -96 -130
-107 4 -21 200 -341 209 -341 4 0 17 8 30 19 27 22 30 16 -66 170 -36 58 -65
112 -65 121 0 11 39 44 100 86 55 38 151 104 213 147 61 43 119 83 127 87 13
8 13 13 -4 44 -11 20 -24 36 -30 35 -6 0 -65 -39 -131 -85z"/>
<path d="M4563 13583 c-7 -15 -13 -30 -13 -34 0 -9 120 -89 315 -209 236 -146
215 -135 230 -119 8 8 17 26 20 40 6 23 1 29 -42 55 -26 16 -55 33 -64 39 -9
5 -48 29 -85 52 -38 24 -100 63 -139 88 -122 78 -186 115 -198 115 -7 0 -18
-12 -24 -27z"/>
<path d="M4444 13301 c-17 -10 -41 -32 -53 -47 -32 -41 -173 -333 -169 -351 2
-8 30 -29 63 -47 33 -18 103 -57 155 -86 52 -29 120 -66 150 -82 30 -17 78
-43 106 -59 65 -37 79 -36 95 2 15 38 19 35 -121 110 -72 39 -100 59 -100 73
0 22 62 137 84 155 18 15 129 37 226 46 41 3 82 8 91 11 17 5 56 80 47 90 -10
9 -253 -24 -292 -40 -21 -9 -40 -16 -43 -16 -2 0 -1 24 2 53 11 85 -23 150
-97 188 -47 24 -104 24 -144 0z m115 -85 c65 -34 67 -105 4 -240 -53 -114 -60
-126 -78 -126 -27 0 -165 85 -165 102 0 22 95 216 118 242 33 36 77 44 121 22z"/>
<path d="M15550 13159 c-8 -5 -76 -42 -150 -83 -74 -40 -157 -86 -185 -102
-27 -15 -79 -44 -115 -64 -70 -38 -81 -57 -55 -96 l16 -25 84 46 c46 25 146
80 222 123 76 43 162 91 191 107 28 15 52 32 52 37 0 15 -30 68 -38 67 -4 0
-14 -4 -22 -10z"/>
<path d="M8660 13145 c-51 -29 -151 -65 -181 -65 -47 0 -261 -186 -343 -298
-87 -119 -106 -165 -161 -397 -25 -109 -13 -397 26 -597 17 -86 9 -104 -48
-112 -27 -3 -91 -16 -143 -29 -84 -21 -103 -29 -163 -78 -133 -106 -223 -252
-218 -354 3 -57 14 -65 87 -65 76 0 131 20 200 72 114 86 231 95 300 24 55
-57 97 -115 128 -180 l29 -58 -7 -187 c-3 -102 -6 -474 -7 -826 -2 -667 -10
-947 -30 -971 -8 -10 -39 -14 -116 -14 -95 0 -110 3 -154 27 -27 14 -49 29
-49 33 0 4 -19 28 -43 54 -38 41 -48 46 -85 46 -58 0 -82 -26 -82 -86 0 -60
26 -147 50 -169 11 -10 20 -22 20 -27 0 -20 83 -128 103 -134 12 -3 31 -14 42
-24 35 -32 147 -71 235 -82 47 -6 138 -8 203 -6 l119 5 18 -41 c10 -23 23 -59
29 -82 6 -23 24 -58 41 -79 16 -21 30 -44 30 -51 0 -7 14 -28 30 -46 17 -18
30 -37 30 -43 0 -27 175 -204 291 -295 72 -55 237 -143 330 -174 41 -14 88
-32 106 -41 17 -9 64 -23 104 -31 40 -8 80 -19 90 -24 10 -6 40 -10 67 -10 38
0 53 5 69 23 55 60 36 106 -63 153 -40 19 -76 34 -80 34 -17 0 -251 120 -264
134 -7 9 -17 16 -22 16 -32 0 -290 240 -304 283 -3 10 -18 38 -34 60 -15 23
-31 53 -35 67 -4 14 -16 41 -26 60 -11 19 -19 40 -19 47 0 7 -9 29 -20 49 -26
45 -75 194 -85 254 -4 25 -15 77 -25 115 -10 39 -23 131 -30 205 -6 74 -18
198 -26 275 -17 157 -32 1138 -20 1286 10 114 16 122 58 82 18 -17 56 -49 84
-70 28 -21 71 -61 95 -89 24 -28 69 -79 99 -114 30 -34 59 -70 64 -79 5 -9 15
-19 22 -24 13 -7 131 -182 154 -227 7 -14 39 -64 71 -112 33 -47 59 -91 59
-96 0 -5 6 -15 14 -21 8 -6 35 -53 60 -104 56 -110 68 -131 88 -154 8 -10 21
-34 28 -53 8 -19 33 -71 56 -115 23 -44 47 -97 53 -117 7 -20 18 -41 26 -48 7
-6 19 -34 25 -63 7 -29 23 -73 36 -99 13 -26 24 -58 24 -71 0 -14 9 -36 20
-50 11 -14 26 -54 34 -89 30 -137 50 -204 67 -229 10 -14 23 -46 28 -71 6 -24
17 -57 26 -74 8 -16 15 -36 15 -44 0 -8 19 -52 41 -97 53 -107 88 -113 102
-18 10 66 91 324 117 375 10 19 21 51 25 70 4 19 18 56 31 82 13 26 24 53 24
59 0 7 6 20 13 28 7 9 28 52 47 96 49 117 217 442 256 498 19 26 34 52 34 58
0 14 30 70 46 87 8 7 14 19 14 26 0 7 10 26 23 42 12 16 45 68 73 117 48 84
65 109 125 181 23 27 55 81 125 205 11 21 30 47 42 59 12 12 22 27 22 33 0 13
46 59 58 59 4 0 16 15 27 33 10 17 31 47 47 65 15 18 28 38 28 44 0 7 10 23
23 37 13 15 32 46 42 71 33 82 101 122 140 83 15 -15 16 -40 12 -237 -13 -593
-37 -1293 -48 -1366 -5 -36 -9 -103 -9 -150 0 -96 -33 -299 -55 -347 -8 -17
-20 -55 -25 -84 -6 -28 -19 -66 -30 -84 -11 -18 -20 -41 -20 -52 0 -10 -11
-34 -25 -53 -14 -19 -25 -38 -25 -44 0 -5 -11 -26 -23 -45 -13 -20 -41 -62
-61 -94 -44 -68 -184 -213 -241 -250 -22 -14 -65 -44 -95 -65 -31 -22 -66 -42
-78 -46 -13 -4 -42 -18 -65 -32 -23 -13 -48 -24 -56 -24 -8 0 -32 -9 -55 -19
-23 -11 -52 -22 -66 -25 -14 -3 -43 -21 -64 -39 -32 -27 -39 -40 -38 -67 0
-19 9 -42 22 -54 18 -18 31 -21 93 -19 79 3 129 15 257 63 47 17 103 37 125
44 22 8 78 34 124 60 46 25 87 46 92 46 5 0 17 8 27 18 10 9 45 37 77 61 33
24 82 66 109 92 26 27 63 62 81 78 19 16 43 47 55 68 11 21 41 72 67 113 25
41 60 111 77 154 42 105 63 121 136 105 112 -24 340 13 453 74 91 49 137 100
198 217 33 63 53 164 38 192 -33 62 -138 44 -179 -30 -35 -63 -79 -84 -208
-98 -101 -12 -116 -12 -137 2 -13 9 -27 24 -30 35 -4 10 -7 463 -8 1006 l-1
988 33 60 c43 78 68 113 111 154 71 68 128 62 298 -32 142 -79 222 -96 280
-60 38 25 41 32 38 83 -4 53 -23 94 -77 167 -22 29 -39 55 -39 58 0 17 -101
105 -145 128 -77 39 -182 67 -251 67 -35 0 -66 5 -69 10 -3 6 -14 10 -23 10
-39 1 -45 15 -24 61 45 100 54 170 49 394 -7 326 -26 410 -137 595 -21 36 -46
79 -56 95 -9 17 -25 36 -36 43 -10 7 -24 28 -32 46 -17 40 -122 123 -189 148
-26 10 -55 22 -65 27 -117 57 -159 65 -256 50 -80 -13 -92 -25 -76 -75 7 -22
18 -46 26 -54 7 -9 25 -41 39 -73 15 -31 31 -59 36 -63 6 -3 19 -27 30 -51 11
-25 32 -62 48 -82 34 -42 62 -102 87 -186 15 -48 19 -102 22 -270 3 -190 1
-217 -18 -285 -12 -41 -26 -97 -32 -125 -6 -27 -23 -80 -39 -116 -16 -36 -29
-70 -29 -74 0 -13 -88 -192 -125 -255 -18 -30 -51 -89 -73 -130 -46 -87 -97
-169 -164 -267 -27 -38 -48 -74 -48 -80 0 -6 -7 -16 -16 -24 -8 -7 -25 -31
-36 -53 -11 -23 -36 -60 -54 -83 -19 -23 -34 -44 -34 -48 0 -3 -24 -43 -53
-88 -29 -45 -61 -98 -72 -117 -10 -19 -46 -76 -79 -127 -102 -154 -192 -296
-215 -338 -12 -22 -33 -58 -46 -80 -36 -61 -205 -399 -205 -409 0 -5 -17 -33
-37 -64 -21 -30 -42 -62 -48 -71 -22 -35 -45 -65 -48 -60 -11 13 -47 111 -47
126 0 10 -11 39 -25 65 -14 26 -25 53 -25 60 0 7 -11 30 -25 50 -14 21 -28 52
-32 70 -3 18 -14 44 -25 57 -10 13 -18 33 -18 45 0 11 -14 39 -30 60 -17 22
-30 44 -30 49 0 6 -7 17 -15 26 -18 19 -49 65 -89 136 -48 83 -113 180 -130
194 -9 7 -16 18 -16 23 0 6 -34 57 -75 113 -41 57 -75 107 -75 111 0 4 -9 17
-19 28 -25 27 -72 93 -167 234 -42 63 -88 126 -103 141 -14 16 -35 43 -46 62
-22 36 -29 48 -92 138 -24 33 -43 64 -43 69 0 4 -12 24 -26 43 -14 19 -41 63
-60 99 -19 36 -41 76 -49 90 -15 26 -32 59 -61 120 -9 19 -27 56 -40 82 -13
27 -24 59 -24 72 0 13 -11 61 -24 107 -48 169 -73 413 -50 509 8 35 19 69 25
76 6 7 14 37 19 66 5 29 13 69 18 88 14 54 70 167 86 173 7 3 16 20 20 39 4
25 16 40 45 58 24 14 47 39 57 63 12 25 30 45 55 57 76 39 116 125 70 150 -30
16 -181 12 -211 -5z"/>
<path d="M9871 12994 c0 -11 3 -14 6 -6 3 7 2 16 -1 19 -3 4 -6 -2 -5 -13z"/>
<path d="M15655 12865 c-67 -32 -161 -73 -185 -80 -14 -4 -52 -20 -85 -35 -33
-15 -100 -44 -150 -65 -49 -21 -94 -41 -98 -45 -10 -9 19 -70 32 -70 8 0 205
82 288 121 24 10 46 19 50 19 5 1 26 9 48 20 22 10 43 16 47 14 4 -3 -3 -22
-16 -42 -12 -20 -84 -134 -159 -254 -76 -119 -137 -223 -137 -232 0 -29 23
-66 42 -66 10 0 35 9 56 19 20 10 98 44 173 75 75 30 165 68 200 84 35 16 79
35 97 42 18 7 35 16 37 20 8 13 -16 70 -30 70 -12 0 -71 -23 -140 -55 -115
-54 -291 -122 -293 -115 -2 6 7 27 19 47 39 65 180 285 231 362 54 81 64 113
49 154 -12 30 -30 33 -76 12z"/>
<path d="M9460 12833 c0 -4 5 -15 10 -23 8 -13 10 -13 10 2 0 9 -4 20 -10 23
-5 3 -10 3 -10 -2z"/>
<path d="M9518 12793 c-20 -5 -24 -23 -5 -23 6 1 23 7 37 15 22 12 22 14 5 13
-11 0 -28 -2 -37 -5z"/>
<path d="M10026 12761 c5 -5 27 -12 49 -16 25 -4 36 -3 30 3 -5 5 -28 12 -49
15 -22 4 -35 2 -30 -2z"/>
<path d="M9399 12722 c-36 -44 -40 -54 -9 -25 19 18 32 35 29 37 -3 3 -12 -2
-20 -12z"/>
<path d="M10600 12730 c-13 -8 -13 -10 2 -10 9 0 20 5 23 10 8 13 -5 13 -25 0z"/>
<path d="M9565 12700 c-3 -5 -2 -10 4 -10 5 0 13 5 16 10 3 6 2 10 -4 10 -5 0
-13 -4 -16 -10z"/>
<path d="M9250 12690 c0 -5 5 -10 11 -10 5 0 7 5 4 10 -3 6 -8 10 -11 10 -2 0
-4 -4 -4 -10z"/>
<path d="M10628 12676 c-18 -13 -25 -36 -10 -36 17 1 45 31 36 39 -5 6 -16 5
-26 -3z"/>
<path d="M9510 12670 c-8 -5 -12 -11 -9 -14 2 -3 11 -1 19 4 8 5 12 11 9 14
-2 3 -11 1 -19 -4z"/>
<path d="M9300 12660 c-13 -9 -13 -10 0 -9 8 0 24 4 35 9 l20 9 -20 0 c-11 0
-27 -4 -35 -9z"/>
<path d="M9957 12618 c-20 -17 -28 -37 -33 -75 -5 -44 -4 -54 15 -69 11 -10
21 -24 21 -31 0 -39 -226 3 -280 52 -24 22 -45 18 -58 -9 -23 -50 2 -90 75
-122 28 -13 54 -27 57 -33 12 -19 -7 -41 -47 -53 -27 -8 -65 -35 -110 -77 -59
-56 -68 -68 -65 -95 5 -48 42 -47 109 5 30 23 66 56 81 73 25 29 31 31 89 30
57 -1 63 -4 88 -35 34 -43 39 -60 40 -142 1 -47 -4 -75 -15 -92 -20 -30 -101
-85 -126 -85 -27 0 -33 -26 -13 -56 15 -23 21 -25 58 -19 23 4 61 19 85 32 37
22 52 25 112 21 65 -3 73 -6 102 -38 51 -54 58 -75 58 -166 l0 -83 -46 -43
c-64 -60 -81 -67 -181 -74 -84 -6 -224 8 -247 24 -6 4 -29 14 -51 21 -46 16
-127 66 -168 105 -16 15 -40 34 -53 43 -13 8 -30 27 -37 42 -14 30 -54 41 -63
17 -9 -23 20 -78 69 -132 66 -73 237 -184 283 -184 12 0 41 -7 64 -15 57 -20
277 -21 305 -1 11 7 36 18 55 25 52 16 102 62 129 116 36 71 34 196 -3 288
-38 92 -82 127 -160 127 -52 0 -57 2 -67 27 -17 44 -3 85 43 129 41 39 42 39
135 42 l94 4 61 -61 c60 -60 61 -61 55 -105 -13 -92 29 -136 99 -103 28 14 34
23 36 49 3 57 -1 83 -15 93 -8 6 -24 29 -35 52 -12 23 -36 52 -54 64 -18 13
-35 26 -38 31 -11 14 -101 58 -143 69 -37 9 -53 7 -121 -16 -105 -35 -122 -32
-158 30 -15 28 -31 56 -34 63 -10 21 23 60 58 67 134 26 169 39 203 72 38 37
43 54 20 73 -15 12 -55 5 -55 -10 0 -5 -17 -14 -39 -20 -34 -9 -44 -7 -85 16
-25 14 -51 34 -56 44 -29 55 10 79 50 31 44 -52 84 -16 53 48 -12 25 -22 31
-47 31 -17 0 -40 3 -52 6 -14 4 -30 -2 -47 -18z"/>
<path d="M9241 12593 c0 -12 -5 -25 -11 -28 -5 -3 -10 -14 -10 -23 1 -11 6 -8
16 11 8 16 13 36 11 45 -3 12 -5 11 -6 -5z"/>
<path d="M9360 12549 c0 -5 5 -7 10 -4 6 3 10 8 10 11 0 2 -4 4 -10 4 -5 0
-10 -5 -10 -11z"/>
<path d="M10435 12550 c3 -5 10 -10 16 -10 5 0 9 5 9 10 0 6 -7 10 -16 10 -8
0 -12 -4 -9 -10z"/>
<path d="M10600 12525 c0 -15 34 -55 46 -55 20 0 17 14 -9 38 -23 21 -37 28
-37 17z"/>
<path d="M4650 12517 c-3 -3 -129 -12 -280 -21 -151 -10 -285 -19 -297 -22
-16 -3 -25 -15 -33 -43 -5 -21 -8 -45 -5 -53 3 -7 31 -36 63 -63 31 -27 86
-77 122 -110 36 -33 103 -94 150 -135 47 -41 101 -89 120 -107 19 -18 40 -33
47 -33 6 0 17 17 24 37 12 37 11 38 -26 68 -21 16 -57 48 -80 70 l-43 40 42
130 c48 148 42 142 168 144 84 1 93 7 100 67 3 27 0 29 -32 32 -20 2 -38 1
-40 -1z m-230 -124 c-1 -31 -56 -187 -68 -191 -6 -2 -19 5 -29 15 -10 10 -60
54 -112 98 l-92 80 78 6 c43 3 111 6 151 7 63 2 72 0 72 -15z"/>
<path d="M10685 12480 c-8 -13 5 -13 25 0 13 8 13 10 -2 10 -9 0 -20 -4 -23
-10z"/>
<path d="M9075 12410 c3 -5 8 -10 11 -10 2 0 4 5 4 10 0 6 -5 10 -11 10 -5 0
-7 -4 -4 -10z"/>
<path d="M10706 12373 c4 -16 11 -32 17 -38 6 -7 8 -2 3 15 -3 14 -6 31 -6 38
0 6 -5 12 -10 12 -6 0 -8 -11 -4 -27z"/>
<path d="M9171 12274 c0 -11 3 -14 6 -6 3 7 2 16 -1 19 -3 4 -6 -2 -5 -13z"/>
<path d="M10740 12281 c0 -6 4 -13 10 -16 6 -3 7 1 4 9 -7 18 -14 21 -14 7z"/>
<path d="M8938 12273 c7 -3 16 -2 19 1 4 3 -2 6 -13 5 -11 0 -14 -3 -6 -6z"/>
<path d="M9040 12264 l-25 -15 25 7 c14 3 29 10 35 15 15 14 -7 10 -35 -7z"/>
<path d="M9142 12180 c0 -19 2 -27 5 -17 2 9 2 25 0 35 -3 9 -5 1 -5 -18z"/>
<path d="M9000 12180 c14 -10 27 -17 29 -15 8 8 -22 35 -38 35 -12 0 -10 -5 9
-20z"/>
<path d="M10790 12179 c0 -5 5 -7 10 -4 6 3 10 8 10 11 0 2 -4 4 -10 4 -5 0
-10 -5 -10 -11z"/>
<path d="M10671 12164 c0 -11 3 -14 6 -6 3 7 2 16 -1 19 -3 4 -6 -2 -5 -13z"/>
<path d="M9029 12135 c-4 -5 -10 -31 -13 -57 -6 -39 -12 -48 -34 -57 -26 -10
-26 -10 8 -8 33 2 35 4 42 47 9 49 7 91 -3 75z"/>
<path d="M15783 12124 c-18 -9 -43 -33 -55 -53 -21 -33 -23 -52 -28 -207 -5
-182 -14 -214 -61 -229 -72 -23 -133 35 -156 146 -13 61 -13 75 1 122 11 37
24 58 46 72 37 25 43 38 28 70 -15 34 -41 31 -87 -10 -117 -106 -83 -367 59
-463 48 -33 146 -28 186 8 52 49 58 72 63 261 6 190 10 203 61 214 67 15 126
-64 137 -181 l6 -64 -42 -41 c-45 -46 -46 -47 -29 -84 15 -34 31 -32 77 10 47
43 67 108 58 195 -12 113 -62 202 -134 239 -31 16 -92 13 -130 -5z"/>
<path d="M9127 12110 c-4 -14 -6 -36 -6 -50 1 -22 2 -20 10 8 6 19 9 41 7 50
-3 12 -6 10 -11 -8z"/>
<path d="M9111 11993 c1 -34 2 -35 9 -13 11 36 11 50 0 50 -5 0 -10 -17 -9
-37z"/>
<path d="M3900 11965 c-21 -56 -18 -59 108 -91 l117 -30 -1 -39 c0 -45 -53
-285 -64 -298 -5 -5 -56 3 -114 17 -138 34 -143 34 -149 -6 -3 -18 -1 -37 3
-42 5 -4 77 -26 162 -47 84 -21 216 -54 292 -74 77 -19 143 -32 147 -28 4 5
10 23 14 40 8 39 12 37 -154 79 -62 16 -116 35 -118 42 -6 14 55 302 67 323 6
9 40 4 139 -21 72 -18 138 -30 146 -26 9 3 15 18 15 40 0 33 -3 36 -42 46 -24
6 -59 15 -78 20 -19 6 -62 17 -95 25 -33 8 -123 30 -200 49 -77 20 -150 38
-163 41 -17 4 -24 0 -32 -20z"/>
<path d="M9010 11916 c0 -8 5 -18 10 -21 6 -3 10 1 10 9 0 8 -4 18 -10 21 -5
3 -10 -1 -10 -9z"/>
<path d="M9120 11891 c0 -6 4 -13 10 -16 6 -3 7 1 4 9 -7 18 -14 21 -14 7z"/>
<path d="M10691 11854 c0 -11 3 -14 6 -6 3 7 2 16 -1 19 -3 4 -6 -2 -5 -13z"/>
<path d="M9000 11719 c-25 -6 -57 -8 -73 -6 -26 3 -26 2 -13 -17 8 -12 22 -19
33 -17 70 13 113 12 119 -3 11 -28 27 -18 19 11 -6 25 -22 44 -35 42 -3 -1
-25 -5 -50 -10z"/>
<path d="M9102 11585 c0 -16 2 -22 5 -12 2 9 2 23 0 30 -3 6 -5 -1 -5 -18z"/>
<path d="M9210 11590 c0 -17 17 -47 23 -40 2 3 -2 16 -10 30 -7 14 -13 18 -13
10z"/>
<path d="M10558 11537 c-15 -23 -39 -54 -53 -69 -14 -15 -25 -31 -25 -36 0 -4
-18 -21 -40 -38 -22 -16 -40 -32 -40 -36 -1 -25 71 21 90 58 8 16 29 43 46 59
27 25 61 92 51 101 -1 2 -15 -16 -29 -39z"/>
<path d="M16057 11526 c-3 -8 0 -40 7 -73 23 -98 26 -132 13 -140 -7 -4 -129
-31 -272 -59 l-260 -51 3 -34 c1 -19 7 -38 11 -42 5 -5 126 14 271 43 144 28
266 48 270 43 4 -4 16 -52 25 -105 17 -97 18 -98 46 -98 47 0 48 -18 -11 333
l-34 197 -32 0 c-18 0 -34 -6 -37 -14z"/>
<path d="M9006 11494 c-5 -14 -4 -15 9 -4 17 14 19 20 6 20 -5 0 -12 -7 -15
-16z"/>
<path d="M10670 11480 c0 -5 4 -10 9 -10 6 0 13 5 16 10 3 6 -1 10 -9 10 -9 0
-16 -4 -16 -10z"/>
<path d="M9290 11472 c0 -12 19 -26 26 -19 2 2 -2 10 -11 17 -9 8 -15 8 -15 2z"/>
<path d="M9224 11375 c4 -20 3 -35 -2 -35 -6 0 -12 -7 -16 -15 -9 -26 9 -17
26 13 11 18 13 34 7 50 -13 34 -22 26 -15 -13z"/>
<path d="M9391 11377 c2 -1 13 -9 24 -17 19 -14 19 -14 6 3 -7 9 -18 17 -24
17 -6 0 -8 -1 -6 -3z"/>
<path d="M3757 11293 c-3 -5 -10 -57 -17 -118 -7 -60 -21 -175 -31 -255 -10
-80 -14 -149 -10 -153 5 -5 21 -7 37 -5 28 3 29 4 41 98 6 52 12 98 12 103 1
13 61 8 297 -25 126 -17 238 -29 247 -25 12 4 17 18 17 41 0 29 -4 37 -22 40
-21 4 -160 23 -425 58 -107 13 -107 14 -93 103 15 89 13 132 -6 139 -21 8 -42
8 -47 -1z"/>
<path d="M5004 11286 c-41 -18 -60 -47 -87 -131 -19 -60 -22 -93 -22 -230 0
-136 3 -173 23 -245 29 -106 92 -239 138 -289 34 -39 101 -73 162 -84 42 -8
41 1 -8 102 -96 196 -113 267 -114 476 -1 131 2 167 16 198 24 53 54 50 108
-10 95 -108 165 -309 190 -544 13 -129 27 -167 73 -200 22 -16 46 -29 54 -29
22 0 43 63 43 127 0 78 27 318 41 368 6 22 16 46 21 53 43 52 125 -60 167
-228 23 -93 40 -313 24 -323 -5 -3 -27 16 -48 44 -37 46 -65 63 -65 38 0 -6
13 -43 29 -82 17 -40 37 -97 46 -127 29 -96 30 -97 107 -108 38 -6 76 -8 84
-5 8 3 22 22 31 42 25 54 25 429 0 521 -51 190 -143 331 -251 387 -50 26 -119
23 -151 -7 -47 -44 -77 -120 -100 -252 -8 -44 -17 -83 -19 -86 -3 -2 -8 9 -11
24 -19 83 -58 230 -64 239 -4 6 -18 37 -31 70 -47 119 -144 246 -222 288 -39
20 -120 22 -164 3z"/>
<path d="M9162 11276 c-16 -37 7 -64 44 -51 15 6 30 17 32 25 5 13 3 13 -11 1
-14 -11 -20 -11 -33 0 -8 7 -13 21 -11 31 7 26 -8 22 -21 -6z"/>
<path d="M10570 11255 c28 -25 56 -42 62 -39 7 4 3 11 -10 18 -11 6 -30 23
-42 39 -12 15 -30 27 -41 27 -15 0 -7 -11 31 -45z"/>
<path d="M10436 11253 c-6 -14 -5 -15 5 -6 7 7 10 15 7 18 -3 3 -9 -2 -12 -12z"/>
<path d="M10657 11263 c-4 -3 -7 -11 -7 -17 0 -6 5 -5 12 2 6 6 9 14 7 17 -3
3 -9 2 -12 -2z"/>
<path d="M14527 11258 c-15 -12 -10 -20 46 -78 80 -83 104 -117 115 -167 13
-57 1 -71 -30 -35 -44 52 -122 101 -179 112 -61 12 -121 -1 -234 -49 -69 -29
-70 -31 -73 -69 -3 -33 1 -43 24 -61 15 -11 38 -21 53 -21 19 0 61 -29 147
-102 66 -57 139 -118 162 -137 49 -39 126 -164 148 -238 28 -95 -10 -178 -78
-171 -30 3 -33 7 -63 93 -40 117 -77 183 -130 235 -37 36 -52 44 -93 48 -46 4
-51 2 -71 -26 -28 -39 -29 -136 -2 -214 55 -160 208 -287 348 -290 103 -2 162
25 204 92 52 83 18 226 -91 377 -22 31 -40 63 -40 71 0 8 17 30 39 48 57 49
91 129 91 212 0 81 -14 122 -62 187 -46 64 -181 195 -200 195 -8 0 -22 -6 -31
-12z m78 -333 c17 -12 36 -34 44 -48 13 -24 12 -29 -17 -62 -18 -19 -35 -47
-38 -60 -3 -14 -11 -25 -17 -25 -10 0 -185 139 -207 164 -10 13 -5 18 27 31
48 21 120 34 153 27 14 -2 39 -15 55 -27z m-190 -482 c46 -48 114 -168 101
-180 -19 -20 -134 86 -167 154 -40 83 -3 97 66 26z"/>
<path d="M10225 11250 c-3 -5 -2 -10 4 -10 5 0 13 5 16 10 3 6 2 10 -4 10 -5
0 -13 -4 -16 -10z"/>
<path d="M10395 11220 c-3 -5 -1 -10 4 -10 6 0 11 5 11 10 0 6 -2 10 -4 10 -3
0 -8 -4 -11 -10z"/>
<path d="M9760 11200 c0 -6 7 -10 15 -10 8 0 15 2 15 4 0 2 -7 6 -15 10 -8 3
-15 1 -15 -4z"/>
<path d="M10015 11190 c-7 -12 2 -12 30 0 19 8 19 9 -2 9 -12 1 -25 -3 -28 -9z"/>
<path d="M10295 11170 c-3 -5 3 -10 14 -10 12 0 21 5 21 10 0 6 -6 10 -14 10
-8 0 -18 -4 -21 -10z"/>
<path d="M9508 11163 c6 -2 18 -2 25 0 6 3 1 5 -13 5 -14 0 -19 -2 -12 -5z"/>
<path d="M9429 11094 c-7 -9 -22 -20 -34 -24 -20 -9 -20 -9 1 -9 11 -1 31 10
44 24 13 14 19 25 13 25 -6 0 -17 -7 -24 -16z"/>
<path d="M9697 11083 c-12 -12 -7 -22 8 -17 8 4 15 10 15 15 0 11 -14 12 -23
2z"/>
<path d="M9850 11070 c14 -10 27 -16 30 -13 6 6 -30 33 -44 33 -6 0 0 -9 14
-20z"/>
<path d="M9947 11063 c-4 -3 -7 -16 -6 -27 0 -19 1 -19 10 3 10 24 8 36 -4 24z"/>
<path d="M15875 10805 c-143 -13 -264 -24 -268 -24 -5 -1 -7 -20 -5 -43 l3
-43 55 4 c30 2 170 13 310 25 l255 21 0 40 0 40 -45 2 c-25 0 -162 -9 -305
-22z"/>
<path d="M3904 10610 c-151 -32 -244 -154 -244 -320 0 -90 16 -142 64 -207
100 -134 342 -159 474 -48 108 91 143 274 77 407 -35 69 -101 131 -162 152
-59 21 -154 28 -209 16z m148 -91 c77 -17 131 -58 164 -124 23 -49 26 -64 21
-121 -5 -71 -40 -141 -87 -176 -46 -33 -128 -49 -208 -39 -140 18 -212 98
-212 238 0 119 71 203 189 223 67 11 75 11 133 -1z"/>
<path d="M16185 10579 c-4 -6 -4 -55 0 -109 7 -98 7 -99 -16 -104 -13 -3 -139
-9 -279 -13 l-255 -8 0 -40 0 -40 278 4 277 3 2 -83 c1 -46 2 -95 2 -109 1
-22 6 -25 36 -25 l35 0 -4 260 c-2 143 -5 263 -8 268 -7 11 -61 8 -68 -4z"/>
<path d="M5017 10313 c-16 -16 -2 -39 74 -118 l82 -85 -52 0 c-28 0 -67 -7
-86 -14 -29 -13 -35 -20 -35 -46 0 -53 30 -100 122 -196 48 -50 88 -94 88 -97
0 -3 -19 -15 -42 -26 -50 -23 -68 -37 -91 -71 -38 -55 -8 -173 67 -265 44 -54
145 -151 190 -183 40 -28 47 -52 16 -52 -12 0 -37 -9 -58 -20 -105 -56 -126
-125 -71 -235 21 -41 128 -153 174 -182 90 -57 171 -103 180 -103 6 0 19 6 29
13 17 12 13 18 -50 62 -135 96 -192 163 -207 242 -14 71 68 112 110 56 139
-189 323 -295 400 -231 21 17 15 89 -12 147 -61 130 -265 261 -408 261 -38 0
-39 1 -24 18 16 17 13 22 -49 83 -65 63 -129 148 -152 202 -17 38 -15 102 3
137 13 26 21 30 56 30 36 0 48 -7 119 -72 43 -40 78 -80 79 -88 1 -8 -8 -21
-19 -28 -29 -18 -25 -42 16 -85 48 -50 122 -87 176 -87 50 0 63 7 72 36 17 54
-79 209 -200 323 -81 77 -137 111 -184 111 -70 0 -176 154 -142 207 4 6 30 14
59 17 49 5 54 4 102 -34 28 -22 58 -53 67 -68 48 -77 63 -94 105 -117 58 -31
79 -32 79 -2 0 14 -32 55 -93 117 l-92 95 103 3 c120 3 129 11 87 74 -39 59
-198 218 -218 218 -24 0 -21 -14 18 -81 19 -33 35 -64 35 -70 0 -5 -40 -9 -89
-9 l-88 0 -44 48 c-24 27 -52 62 -61 80 -9 17 -38 45 -64 62 -48 30 -65 35
-77 23z m618 -1319 c60 -31 125 -91 125 -116 0 -23 -14 -22 -73 5 -55 25 -166
116 -166 136 -1 19 50 8 114 -25z"/>
<path d="M14542 10033 c2 -5 24 -49 50 -99 56 -109 67 -154 43 -177 -23 -23
-34 -21 -86 12 -46 29 -114 98 -164 166 -40 53 -66 74 -92 75 -37 0 -73 -18
-73 -38 0 -20 63 -122 186 -302 101 -146 157 -256 152 -297 -3 -25 -7 -28 -33
-25 -35 3 -83 52 -135 137 -46 76 -127 165 -150 165 -20 0 -25 -11 -35 -83 -8
-56 11 -100 76 -177 79 -94 178 -150 279 -157 57 -4 69 -2 100 19 81 55 74
122 -27 256 -35 46 -63 85 -63 88 0 8 28 4 56 -10 56 -27 117 -24 149 9 30 29
33 89 10 155 -15 43 -131 227 -168 268 -19 20 -84 33 -75 15z"/>
<path d="M15724 9906 c-66 -29 -106 -95 -123 -202 -24 -156 31 -264 152 -298
68 -20 447 -50 459 -38 5 5 8 25 6 43 l-3 34 -140 12 c-319 27 -342 33 -382
92 -42 63 -27 195 29 248 27 26 37 28 116 31 48 2 157 -3 242 -11 85 -8 158
-13 163 -10 4 2 7 22 7 43 0 46 7 43 -187 60 -167 14 -301 12 -339 -4z"/>
<path d="M4184 9798 c-54 -51 -126 -119 -160 -150 -33 -32 -67 -58 -75 -58 -8
0 -70 54 -139 119 -69 66 -129 116 -133 111 -5 -4 -6 -28 -2 -53 7 -43 15 -54
129 -160 66 -62 138 -128 159 -147 20 -18 37 -39 37 -45 0 -8 -34 -14 -107
-19 -60 -4 -125 -10 -145 -13 -36 -5 -38 -7 -38 -43 0 -22 6 -40 13 -43 7 -2
82 1 167 9 85 7 216 18 290 24 74 6 141 13 148 16 9 2 12 17 10 41 l-3 38
-111 -4 -111 -3 -47 44 c-25 25 -46 49 -46 55 0 6 41 49 92 94 192 174 198
181 198 208 0 35 -10 71 -20 71 -4 0 -52 -42 -106 -92z"/>
<path d="M13755 9419 c-19 -30 48 -192 146 -356 90 -152 159 -227 276 -304
123 -80 224 -110 299 -89 36 10 50 21 69 55 30 51 32 104 7 201 -30 111 -99
254 -123 254 -27 0 -27 -9 -1 -83 30 -85 41 -207 22 -242 -16 -31 -59 -48 -96
-39 -65 15 -81 32 -134 136 -111 219 -151 279 -245 371 -79 78 -199 131 -220
96z m295 -311 c0 -5 11 -24 24 -41 32 -43 69 -117 58 -117 -13 0 -122 117
-164 175 -96 134 -91 176 7 71 41 -44 75 -83 75 -88z"/>
<path d="M16116 9178 c-3 -13 -12 -61 -20 -107 -9 -46 -18 -86 -20 -89 -3 -2
-42 3 -88 12 -46 10 -166 33 -267 52 -200 38 -204 38 -199 -21 l3 -29 160 -32
c88 -17 203 -39 256 -49 53 -9 101 -20 107 -24 8 -5 7 -34 -3 -111 -8 -57 -12
-107 -7 -112 4 -4 18 -9 32 -10 29 -4 32 5 55 147 9 55 21 123 25 150 5 28 14
79 20 115 6 36 13 72 15 80 6 22 -6 36 -37 44 -23 5 -28 3 -32 -16z"/>
<path d="M4225 8884 c-77 -25 -192 -61 -255 -80 -150 -46 -160 -50 -160 -71 0
-38 21 -92 38 -97 9 -2 131 -10 270 -17 203 -10 255 -15 259 -27 3 -8 0 -18
-8 -23 -24 -15 -48 -31 -193 -138 -209 -153 -236 -174 -236 -182 0 -28 26
-112 36 -116 14 -5 553 157 583 176 15 10 7 81 -9 81 -10 0 -153 -44 -307 -95
-104 -35 -173 -51 -173 -42 0 5 108 90 200 157 27 19 90 66 140 105 87 65 91
71 86 99 -4 17 -11 35 -16 40 -6 6 -117 16 -247 23 -233 13 -290 19 -281 29 3
2 108 36 234 75 126 39 232 74 236 78 4 3 4 20 0 36 -12 42 -34 41 -197 -11z"/>
<path d="M15441 8633 c-6 -21 -21 -81 -35 -133 -14 -52 -37 -137 -51 -188 -14
-51 -25 -102 -25 -112 0 -15 25 -29 52 -30 8 0 24 52 80 259 18 68 39 126 46
128 7 3 52 -5 100 -19 71 -19 88 -27 90 -44 2 -12 -16 -89 -38 -173 -23 -83
-40 -159 -38 -168 2 -12 12 -18 32 -18 23 0 31 6 37 25 4 14 24 88 44 165 21
77 41 144 45 148 11 12 171 -35 178 -51 2 -8 -14 -84 -36 -170 -61 -231 -58
-210 -26 -222 15 -6 31 -7 35 -3 4 4 19 53 34 108 15 55 38 141 51 190 14 50
27 108 30 130 l6 40 -74 21 c-40 12 -169 52 -287 88 -118 36 -220 66 -227 66
-7 0 -18 -17 -23 -37z"/>
<path d="M14248 8655 c-3 -3 1 -36 8 -73 20 -102 18 -168 -6 -192 -11 -11 -24
-20 -29 -20 -23 0 -62 48 -106 130 -51 95 -70 112 -118 103 -24 -5 -27 -2 -27
21 0 23 -4 26 -35 26 -85 0 -119 -91 -119 -320 0 -132 3 -167 22 -235 24 -83
66 -157 108 -188 52 -39 204 -26 242 21 18 23 15 50 -19 201 -17 75 -34 147
-37 161 -4 21 3 17 51 -29 86 -84 124 -98 168 -62 22 18 24 26 22 103 -2 107
-54 315 -84 341 -22 18 -32 21 -41 12z m-235 -280 c78 -218 105 -367 72 -395
-12 -10 -21 -8 -50 10 -39 24 -55 51 -75 122 -18 70 -6 389 15 366 1 -2 19
-48 38 -103z"/>
<path d="M5646 8595 c-92 -20 -190 -71 -208 -109 -25 -50 -28 -64 -17 -94 35
-92 134 -165 330 -242 44 -18 49 -18 64 -3 15 15 10 19 -61 57 -91 48 -168
119 -177 161 -10 57 46 109 118 109 17 0 83 -22 148 -48 65 -25 170 -60 235
-77 104 -27 127 -30 210 -25 109 6 182 33 182 65 0 33 -96 82 -300 152 -198
68 -375 87 -524 54z m465 -125 c42 -10 94 -26 115 -35 33 -14 36 -18 22 -26
-36 -20 -368 54 -368 82 0 14 137 1 231 -21z"/>
<path d="M13500 8565 c-32 -38 23 -207 88 -270 34 -33 97 -182 177 -420 35
-104 48 -161 52 -222 7 -96 -4 -110 -64 -78 -73 40 -151 190 -358 688 -36 86
-61 107 -129 107 -28 0 -59 -7 -69 -14 -38 -29 -94 -252 -131 -524 -22 -156
-20 -207 8 -268 36 -76 129 -154 168 -139 8 3 22 39 32 83 10 42 31 110 47
150 16 41 29 80 29 88 0 27 -20 14 -52 -36 -18 -27 -37 -48 -43 -46 -24 8 11
406 39 433 8 8 6 12 61 -112 99 -226 201 -417 258 -482 18 -20 50 -49 71 -65
34 -24 48 -28 110 -28 84 0 134 21 155 65 11 24 12 44 3 110 -16 123 -146 530
-222 701 -12 27 -29 65 -38 84 -31 70 -102 171 -134 190 -40 24 -42 24 -58 5z"/>
<path d="M5995 8120 c-201 -52 -319 -147 -301 -243 8 -44 77 -110 149 -142 65
-30 220 -75 257 -75 15 0 30 7 33 15 7 17 5 18 -48 35 -133 43 -225 110 -225
165 0 39 28 78 70 95 33 14 26 15 238 -29 237 -48 400 -42 527 19 84 41 53 77
-98 117 -241 63 -465 79 -602 43z m445 -91 c36 -5 72 -17 80 -26 14 -14 -2
-15 -155 -10 -109 3 -183 10 -205 18 l-35 14 45 6 c76 10 202 9 270 -2z"/>
<path d="M4369 8086 c-170 -46 -279 -190 -266 -352 5 -72 48 -171 94 -221 94
-99 268 -109 405 -21 60 38 89 72 123 145 25 51 27 65 23 142 -5 107 -37 179
-107 244 -74 70 -168 91 -272 63z m187 -97 c111 -53 157 -199 98 -317 -45 -90
-154 -152 -268 -152 -63 0 -96 14 -143 59 -71 68 -88 205 -36 289 71 114 239
172 349 121z"/>
<path d="M15305 7993 c-71 -37 -133 -129 -154 -230 -33 -155 43 -273 169 -261
65 6 94 30 194 157 47 60 93 111 101 115 48 18 101 -15 111 -69 8 -47 -21
-136 -60 -181 -28 -33 -39 -38 -88 -42 -47 -4 -57 -8 -62 -26 -12 -44 -7 -55
30 -62 105 -20 206 75 245 230 43 172 -100 303 -232 213 -18 -12 -67 -67 -109
-122 -42 -55 -91 -108 -108 -118 -28 -16 -34 -17 -66 -3 -37 15 -66 59 -66 99
0 42 36 134 66 171 40 48 87 70 134 62 36 -6 39 -4 49 26 8 23 8 35 0 44 -16
19 -116 17 -154 -3z"/>
<path d="M6193 7661 c-119 -41 -198 -132 -190 -220 12 -114 153 -195 397 -227
100 -14 105 -13 124 6 11 11 17 22 14 25 -3 3 -46 14 -94 24 -211 43 -327 145
-257 224 23 24 34 22 136 -27 121 -57 211 -80 281 -73 128 13 141 95 31 189
-37 32 -130 76 -183 87 -80 17 -199 13 -259 -8z m350 -116 c27 -11 37 -21 35
-33 -5 -27 -125 -22 -211 8 -70 25 -82 36 -44 45 67 14 158 6 220 -20z"/>
<path d="M12506 7468 c-19 -29 -50 -146 -72 -268 -22 -119 -25 -481 -5 -580
21 -110 77 -203 151 -253 61 -42 83 -15 95 118 12 129 69 360 86 349 4 -2 5
-34 2 -69 -6 -68 9 -171 33 -217 20 -39 65 -61 100 -48 32 13 46 29 75 90 30
61 89 239 89 266 0 20 -26 52 -34 43 -2 -2 -18 -39 -36 -81 -37 -90 -64 -128
-90 -128 -36 0 -43 35 -36 166 8 164 0 182 -83 175 -51 -5 -91 -93 -162 -361
-18 -69 -36 -129 -40 -134 -4 -4 -14 2 -22 15 -11 19 -13 38 -7 89 56 452 73
727 51 808 -11 39 -14 42 -46 42 -25 0 -39 -6 -49 -22z"/>
<path d="M6650 7231 c-92 -25 -162 -64 -204 -112 -44 -52 -60 -97 -47 -132 14
-37 60 -43 194 -23 143 20 307 29 307 16 0 -5 -19 -14 -42 -19 -131 -32 -199
-66 -229 -115 -37 -61 -15 -105 66 -131 45 -14 85 -16 219 -13 151 3 166 5
180 23 9 11 16 23 16 26 0 3 -52 9 -117 13 -134 8 -156 16 -151 54 4 36 65 58
199 72 57 5 113 17 125 25 30 19 62 104 44 115 -48 30 -365 55 -506 40 -66 -7
-101 -7 -108 0 -21 21 14 33 131 45 201 23 219 33 158 95 -38 39 -41 40 -105
39 -36 0 -94 -9 -130 -18z"/>
<path d="M7265 6783 c-76 -17 -117 -37 -155 -79 -56 -61 -80 -116 -80 -188 0
-54 3 -61 38 -96 59 -59 124 -74 295 -68 138 5 139 5 133 -16 -31 -105 -12
-170 60 -212 42 -25 61 -29 147 -32 142 -6 335 37 358 79 6 11 8 23 5 26 -3 3
-55 -2 -116 -12 -189 -30 -309 2 -309 85 0 54 10 57 189 56 164 -1 165 -1 225
29 32 17 68 42 79 58 20 27 20 28 2 62 -13 23 -34 41 -70 57 -44 20 -66 23
-166 22 -100 0 -124 -4 -184 -27 -37 -15 -90 -43 -117 -63 l-49 -36 -127 4
c-117 3 -133 5 -187 32 -44 22 -61 36 -72 63 -17 40 -13 61 19 92 20 18 40 22
137 28 l113 6 -6 -23 c-10 -40 9 -60 57 -60 93 0 205 56 219 110 10 40 -34 75
-118 93 -71 16 -268 22 -320 10z m737 -321 c28 -27 -103 -72 -208 -72 -65 0
-75 2 -65 14 43 51 237 92 273 58z"/>
<path d="M12055 6679 c-31 -18 -103 -89 -140 -139 -73 -100 -125 -224 -125
-299 0 -46 39 -128 76 -163 92 -86 176 -44 254 126 72 158 65 155 68 31 3
-107 2 -111 -33 -187 -80 -175 -119 -366 -81 -397 64 -53 158 123 186 349 11
89 17 107 103 282 l92 188 -21 20 -20 20 -59 -115 c-33 -63 -63 -115 -67 -115
-5 0 -8 69 -8 153 0 148 -1 154 -23 175 -31 29 -74 29 -87 0 -6 -13 -28 -87
-50 -166 -43 -152 -66 -199 -124 -250 -47 -41 -64 -40 -82 4 -23 55 -3 118 65
204 15 19 58 79 95 134 77 112 84 149 31 153 -16 2 -39 -2 -50 -8z"/>
<path d="M9642 6522 c-247 -131 -612 -483 -657 -634 -17 -59 -20 -144 -5 -182
16 -42 47 -32 145 45 120 95 299 208 311 196 3 -3 -29 -39 -71 -81 -85 -85
-120 -149 -110 -197 18 -80 108 -64 342 59 45 24 84 51 88 59 12 34 -13 36
-87 5 -122 -50 -167 -52 -168 -6 0 14 64 80 138 143 68 59 80 94 45 134 -10
10 -30 17 -52 17 -54 0 -215 -79 -384 -187 -37 -24 -72 -43 -77 -43 -6 0 -10
11 -10 24 0 17 16 35 58 67 261 196 558 453 613 531 18 24 20 34 10 54 -15 33
-61 32 -129 -4z"/>
<path d="M11517 6373 c-24 -38 -83 -136 -132 -220 -98 -168 -178 -268 -210
-262 -16 3 -21 13 -23 51 -3 42 2 55 38 108 53 78 113 203 108 227 -2 10 -12
19 -22 21 -29 6 -102 -27 -135 -60 -40 -41 -90 -162 -98 -238 -3 -33 -8 -60
-11 -60 -3 0 -10 8 -17 17 -12 16 -16 13 -51 -24 -22 -22 -52 -43 -68 -47 -28
-7 -29 -6 -22 26 15 69 18 108 12 153 -6 36 -13 49 -32 57 -21 10 -24 16 -19
40 14 61 -40 74 -142 36 -142 -52 -280 -188 -307 -301 -4 -15 -14 -31 -24 -34
-9 -4 -42 -26 -73 -49 -75 -57 -121 -78 -153 -70 -64 16 -34 96 77 204 36 34
67 70 69 80 9 31 -22 92 -48 98 -22 6 -116 -5 -201 -22 -32 -6 -33 -5 -33 25
0 26 -4 31 -24 31 -33 0 -121 -72 -157 -128 -32 -50 -39 -109 -14 -118 24 -10
18 -26 -30 -81 -44 -50 -54 -76 -36 -87 5 -3 50 34 100 84 85 83 95 90 156
105 36 9 70 15 76 13 5 -2 -13 -32 -41 -67 -61 -77 -80 -119 -80 -181 0 -42 4
-52 35 -79 43 -38 71 -39 137 -6 52 26 185 132 226 179 24 28 42 27 42 -3 0
-9 12 -41 26 -69 68 -137 216 -138 349 -3 27 28 55 51 61 51 36 0 114 47 160
95 l50 55 13 -50 c9 -34 25 -62 52 -89 89 -89 162 -47 264 152 11 20 22 37 26
37 3 0 9 -22 12 -49 12 -99 60 -145 129 -122 59 20 149 129 227 278 27 51 31
65 22 82 -17 30 -25 27 -59 -26 -17 -27 -53 -70 -80 -96 -40 -39 -55 -48 -78
-45 -26 3 -29 7 -32 46 -4 52 17 121 69 225 45 89 46 100 19 145 -31 50 -53
42 -103 -35z m-822 -350 c-26 -63 -29 -131 -10 -207 7 -23 3 -32 -21 -53 -39
-34 -73 -45 -111 -38 -38 7 -48 32 -40 101 6 55 33 94 111 162 64 54 83 64 71
35z"/>
<path d="M8996 6395 c-27 -14 -60 -35 -73 -45 -20 -15 -35 -17 -101 -13 -91 7
-120 -4 -196 -71 l-49 -43 62 -13 c34 -7 64 -16 66 -21 11 -16 -168 -127 -254
-157 -24 -8 -31 -17 -31 -36 0 -30 7 -32 46 -11 36 18 45 3 16 -28 -33 -37
-52 -84 -52 -130 0 -63 30 -82 125 -81 76 1 156 25 303 92 61 27 84 43 88 60
4 13 4 26 0 29 -3 4 -55 -10 -115 -30 -63 -22 -128 -37 -155 -37 -41 0 -46 3
-52 27 -10 39 28 103 103 173 97 92 102 94 166 80 74 -17 118 -2 185 63 28 28
52 54 52 58 0 4 -16 13 -35 19 -19 6 -35 13 -35 15 0 3 19 22 43 44 37 35 40
42 27 55 -30 29 -81 29 -134 1z"/>
<path d="M12490 5315 c-19 -7 -89 -30 -155 -50 -66 -21 -132 -43 -147 -51 -27
-14 -183 -214 -213 -274 -20 -39 -23 -107 -6 -139 22 -41 46 -44 108 -13 152
76 253 102 253 64 0 -56 -129 -177 -272 -255 -77 -43 -120 -51 -75 -14 27 23
34 41 19 51 -16 9 -92 -34 -141 -79 -40 -37 -51 -55 -56 -88 -4 -23 -2 -55 5
-71 10 -28 12 -29 68 -23 186 17 419 179 506 350 82 161 51 277 -74 277 -41 0
-157 -34 -174 -51 -6 -5 -16 -9 -24 -9 -10 0 -9 7 5 30 41 70 55 79 173 115
166 50 173 55 226 157 49 96 47 102 -26 73z"/>
<path d="M7725 5221 c-100 -25 -170 -85 -182 -155 -14 -85 40 -136 232 -217
29 -12 26 -13 -65 -25 -121 -16 -200 -46 -252 -95 l-41 -39 6 -66 c7 -87 36
-124 140 -176 195 -98 424 -104 544 -12 34 25 36 26 46 9 28 -50 92 -105 144
-125 50 -19 61 -20 111 -8 30 6 80 28 111 48 31 20 61 39 67 43 9 5 10 -11 7
-58 -5 -61 -4 -65 25 -94 50 -51 118 -39 237 40 41 28 79 48 84 45 4 -3 11
-18 14 -34 9 -44 44 -82 77 -82 25 0 112 51 148 87 22 22 28 15 29 -36 2 -125
86 -141 213 -42 90 71 110 93 110 123 0 15 -5 28 -10 28 -6 0 -43 -23 -83 -50
-91 -65 -112 -64 -112 5 1 61 21 102 138 282 126 193 137 222 98 257 -43 39
-104 -13 -182 -154 -66 -121 -62 -117 -93 -101 -33 18 -111 2 -193 -40 -68
-34 -103 -64 -138 -115 -27 -40 -157 -124 -193 -124 -46 0 -48 60 -5 140 44
83 52 90 100 90 60 0 97 22 128 73 31 55 32 73 0 81 -24 6 -24 7 -8 41 21 44
6 65 -47 65 -31 0 -44 -7 -74 -40 -32 -36 -41 -40 -83 -40 -57 0 -91 -20 -133
-78 -31 -43 -32 -67 -2 -58 10 3 30 -1 45 -7 l29 -12 -49 -50 c-52 -53 -204
-145 -239 -145 -36 0 -34 11 8 44 76 58 91 116 66 255 -13 75 -25 94 -62 94
-30 0 -55 -18 -66 -49 -13 -33 -190 -156 -216 -149 -12 3 -53 -7 -90 -21 -134
-52 -328 -42 -456 23 -68 33 -62 64 22 102 71 32 170 43 316 35 l131 -7 21 28
c27 34 28 66 3 82 -10 7 -63 24 -118 38 -222 58 -293 88 -293 121 0 48 159 78
298 54 40 -6 72 -15 72 -18 0 -3 -12 -19 -27 -34 -42 -44 -21 -51 82 -27 154
35 140 25 143 102 3 66 2 67 -29 86 -18 11 -80 31 -140 45 -85 21 -131 26
-221 25 -62 -1 -126 -4 -143 -8z m655 -651 c0 -52 -3 -62 -27 -85 -15 -14 -33
-25 -39 -25 -12 0 -74 74 -74 87 1 12 123 92 132 87 4 -3 8 -32 8 -64z m870
-79 c0 -24 -161 -151 -192 -151 -21 0 -6 60 22 88 39 39 170 87 170 63z"/>
<path d="M11681 5090 c-91 -33 -192 -100 -277 -185 -93 -92 -127 -150 -128
-216 0 -77 70 -159 136 -159 25 0 105 46 145 83 37 33 38 12 1 -39 -18 -26
-52 -74 -75 -108 -23 -33 -54 -66 -68 -73 -27 -15 -75 -99 -75 -134 0 -19 4
-21 31 -15 55 11 110 70 248 266 278 393 276 390 201 390 -33 0 -47 -8 -102
-61 -140 -135 -318 -246 -318 -199 0 31 35 85 88 137 59 58 218 161 229 149 4
-4 1 -12 -5 -18 -16 -16 -15 -38 2 -38 21 0 142 105 149 129 7 28 -13 62 -52
88 -41 28 -60 28 -130 3z"/>
<path d="M11005 4971 c-176 -63 -352 -218 -379 -334 -19 -80 66 -197 143 -197
26 0 85 27 135 63 22 15 41 25 44 23 7 -8 -153 -214 -175 -225 -26 -12 -83
-97 -83 -124 0 -46 66 -32 123 26 45 44 350 447 388 512 22 37 22 38 4 51 -33
24 -62 15 -126 -38 -134 -115 -215 -167 -291 -189 -36 -10 -42 2 -23 48 27 63
101 129 218 192 68 37 93 40 77 12 -14 -27 -13 -31 8 -31 20 0 115 67 138 97
22 29 16 50 -24 93 -34 35 -44 40 -83 39 -24 0 -67 -8 -94 -18z"/>
<path d="M10340 4887 c-132 -76 -157 -95 -164 -122 -13 -50 3 -55 69 -24 25
12 48 20 50 17 3 -2 -34 -62 -81 -133 -102 -155 -138 -227 -167 -340 -16 -64
-19 -89 -11 -103 16 -25 88 -71 115 -74 23 -3 24 1 30 62 7 73 50 179 130 317
27 47 49 87 49 88 0 2 16 32 36 67 60 104 94 176 94 198 0 42 -36 90 -68 90
-4 0 -41 -20 -82 -43z"/>
<path d="M9621 4295 c-33 -38 -45 -69 -39 -106 2 -18 14 -28 44 -38 38 -13 44
-13 69 3 28 19 65 93 65 131 0 29 -26 45 -73 45 -27 0 -42 -8 -66 -35z"/>
</g>
</svg>
